<svg width="331" height="262" viewBox="0 0 331 262" fill="none" xmlns="http://www.w3.org/2000/svg">
<line x1="2.5" y1="1.17116e-08" x2="2.50004" y2="262" stroke="#494949"/>
<line x1="83.9688" y1="9.58795e-09" x2="83.9688" y2="262" stroke="#494949"/>
<line x1="166.562" y1="9.58795e-09" x2="166.563" y2="262" stroke="white"/>
<line x1="248.031" y1="9.58795e-09" x2="248.031" y2="262" stroke="#494949"/>
<line x1="329.5" y1="-2.69766e-08" x2="329.5" y2="262" stroke="#494949"/>
<path d="M2 164.786C191.863 275.349 251.652 117 329 117" stroke="#F6FEE0" stroke-width="3" stroke-linecap="round" stroke-linejoin="round"/>
<path d="M2 225C108.188 225 132.442 73 329 73" stroke="#DAF4FE" stroke-width="3" stroke-linecap="round" stroke-linejoin="round"/>
<rect x="121" y="27" width="89" height="46" rx="4" fill="white"/>
<path d="M132.424 38.424V42.544C132.424 43.0027 132.283 43.3707 132 43.648C131.717 43.92 131.344 44.056 130.88 44.056C130.411 44.056 130.035 43.9173 129.752 43.64C129.469 43.3573 129.328 42.9733 129.328 42.488H130.056C130.061 42.76 130.131 42.9813 130.264 43.152C130.403 43.3227 130.608 43.408 130.88 43.408C131.152 43.408 131.355 43.328 131.488 43.168C131.621 43.0027 131.688 42.7947 131.688 42.544V38.424H132.424ZM133.586 41.792C133.586 41.344 133.677 40.952 133.858 40.616C134.04 40.2747 134.288 40.0107 134.602 39.824C134.922 39.6373 135.277 39.544 135.666 39.544C136.05 39.544 136.384 39.6267 136.666 39.792C136.949 39.9573 137.16 40.1653 137.298 40.416V39.616H138.034V44H137.298V43.184C137.154 43.44 136.938 43.6533 136.65 43.824C136.368 43.9893 136.037 44.072 135.658 44.072C135.269 44.072 134.917 43.976 134.602 43.784C134.288 43.592 134.04 43.3227 133.858 42.976C133.677 42.6293 133.586 42.2347 133.586 41.792ZM137.298 41.8C137.298 41.4693 137.232 41.1813 137.098 40.936C136.965 40.6907 136.784 40.504 136.554 40.376C136.33 40.2427 136.082 40.176 135.81 40.176C135.538 40.176 135.29 40.24 135.066 40.368C134.842 40.496 134.664 40.6827 134.53 40.928C134.397 41.1733 134.33 41.4613 134.33 41.792C134.33 42.128 134.397 42.4213 134.53 42.672C134.664 42.9173 134.842 43.1067 135.066 43.24C135.29 43.368 135.538 43.432 135.81 43.432C136.082 43.432 136.33 43.368 136.554 43.24C136.784 43.1067 136.965 42.9173 137.098 42.672C137.232 42.4213 137.298 42.1307 137.298 41.8ZM141.4 39.536C141.934 39.536 142.366 39.6987 142.696 40.024C143.027 40.344 143.192 40.808 143.192 41.416V44H142.472V41.52C142.472 41.0827 142.363 40.7493 142.144 40.52C141.926 40.2853 141.627 40.168 141.248 40.168C140.864 40.168 140.558 40.288 140.328 40.528C140.104 40.768 139.992 41.1173 139.992 41.576V44H139.264V39.616H139.992V40.24C140.136 40.016 140.331 39.8427 140.576 39.72C140.827 39.5973 141.102 39.536 141.4 39.536ZM146.202 38.88V38.216H147.706V44H146.97V38.88H146.202ZM152.181 39.592C152.064 39 151.698 38.704 151.085 38.704C150.61 38.704 150.256 38.888 150.021 39.256C149.786 39.6187 149.672 40.2187 149.677 41.056C149.8 40.7787 150.002 40.5627 150.285 40.408C150.573 40.248 150.893 40.168 151.245 40.168C151.794 40.168 152.232 40.3387 152.557 40.68C152.888 41.0213 153.053 41.4933 153.053 42.096C153.053 42.4587 152.981 42.784 152.837 43.072C152.698 43.36 152.485 43.5893 152.197 43.76C151.914 43.9307 151.57 44.016 151.165 44.016C150.616 44.016 150.186 43.8933 149.877 43.648C149.568 43.4027 149.352 43.064 149.229 42.632C149.106 42.2 149.045 41.6667 149.045 41.032C149.045 39.0747 149.728 38.096 151.093 38.096C151.616 38.096 152.026 38.2373 152.325 38.52C152.624 38.8027 152.8 39.16 152.853 39.592H152.181ZM151.093 40.784C150.864 40.784 150.648 40.832 150.445 40.928C150.242 41.0187 150.077 41.16 149.949 41.352C149.826 41.5387 149.765 41.768 149.765 42.04C149.765 42.4453 149.882 42.776 150.117 43.032C150.352 43.2827 150.688 43.408 151.125 43.408C151.498 43.408 151.794 43.2933 152.013 43.064C152.237 42.8293 152.349 42.5147 152.349 42.12C152.349 41.704 152.242 41.3787 152.029 41.144C151.816 40.904 151.504 40.784 151.093 40.784Z" fill="#131316"/>
<path d="M134.27 59.09C134.27 59.41 134.19 59.7167 134.03 60.01C133.87 60.2967 133.633 60.5367 133.32 60.73C133.013 60.9233 132.643 61.0333 132.21 61.06V61.87H131.67V61.06C131.063 61.0067 130.57 60.8133 130.19 60.48C129.81 60.14 129.617 59.71 129.61 59.19H130.58C130.607 59.47 130.71 59.7133 130.89 59.92C131.077 60.1267 131.337 60.2567 131.67 60.31V57.81C131.223 57.6967 130.863 57.58 130.59 57.46C130.317 57.34 130.083 57.1533 129.89 56.9C129.697 56.6467 129.6 56.3067 129.6 55.88C129.6 55.34 129.787 54.8933 130.16 54.54C130.54 54.1867 131.043 53.99 131.67 53.95V53.12H132.21V53.95C132.777 53.9967 133.233 54.18 133.58 54.5C133.927 54.8133 134.127 55.2233 134.18 55.73H133.21C133.177 55.4967 133.073 55.2867 132.9 55.1C132.727 54.9067 132.497 54.78 132.21 54.72V57.16C132.65 57.2733 133.007 57.39 133.28 57.51C133.56 57.6233 133.793 57.8067 133.98 58.06C134.173 58.3133 134.27 58.6567 134.27 59.09ZM130.53 55.83C130.53 56.1567 130.627 56.4067 130.82 56.58C131.013 56.7533 131.297 56.8967 131.67 57.01V54.7C131.323 54.7333 131.047 54.8467 130.84 55.04C130.633 55.2267 130.53 55.49 130.53 55.83ZM132.21 60.32C132.57 60.28 132.85 60.15 133.05 59.93C133.257 59.71 133.36 59.4467 133.36 59.14C133.36 58.8133 133.26 58.5633 133.06 58.39C132.86 58.21 132.577 58.0667 132.21 57.96V60.32ZM135.601 54.6V53.77H137.481V61H136.561V54.6H135.601ZM138.934 60.27C139.78 59.59 140.444 59.0333 140.924 58.6C141.404 58.16 141.807 57.7033 142.134 57.23C142.467 56.75 142.634 56.28 142.634 55.82C142.634 55.3867 142.527 55.0467 142.314 54.8C142.107 54.5467 141.77 54.42 141.304 54.42C140.85 54.42 140.497 54.5633 140.244 54.85C139.997 55.13 139.864 55.5067 139.844 55.98H138.964C138.99 55.2333 139.217 54.6567 139.644 54.25C140.07 53.8433 140.62 53.64 141.294 53.64C141.98 53.64 142.524 53.83 142.924 54.21C143.33 54.59 143.534 55.1133 143.534 55.78C143.534 56.3333 143.367 56.8733 143.034 57.4C142.707 57.92 142.334 58.38 141.914 58.78C141.494 59.1733 140.957 59.6333 140.304 60.16H143.744V60.92H138.934V60.27ZM144.796 57.31C144.796 56.1633 144.982 55.27 145.356 54.63C145.729 53.9833 146.382 53.66 147.316 53.66C148.242 53.66 148.892 53.9833 149.266 54.63C149.639 55.27 149.826 56.1633 149.826 57.31C149.826 58.4767 149.639 59.3833 149.266 60.03C148.892 60.6767 148.242 61 147.316 61C146.382 61 145.729 60.6767 145.356 60.03C144.982 59.3833 144.796 58.4767 144.796 57.31ZM148.926 57.31C148.926 56.73 148.886 56.24 148.806 55.84C148.732 55.4333 148.576 55.1067 148.336 54.86C148.102 54.6133 147.762 54.49 147.316 54.49C146.862 54.49 146.516 54.6133 146.276 54.86C146.042 55.1067 145.886 55.4333 145.806 55.84C145.732 56.24 145.696 56.73 145.696 57.31C145.696 57.91 145.732 58.4133 145.806 58.82C145.886 59.2267 146.042 59.5533 146.276 59.8C146.516 60.0467 146.862 60.17 147.316 60.17C147.762 60.17 148.102 60.0467 148.336 59.8C148.576 59.5533 148.732 59.2267 148.806 58.82C148.886 58.4133 148.926 57.91 148.926 57.31ZM157.291 51.58L154.551 62.7H153.651L156.381 51.58H157.291ZM161.143 55.59C161.19 54.9767 161.426 54.4967 161.853 54.15C162.28 53.8033 162.833 53.63 163.513 53.63C163.966 53.63 164.356 53.7133 164.683 53.88C165.016 54.04 165.266 54.26 165.433 54.54C165.606 54.82 165.693 55.1367 165.693 55.49C165.693 55.9033 165.573 56.26 165.333 56.56C165.1 56.86 164.793 57.0533 164.413 57.14V57.19C164.846 57.2967 165.19 57.5067 165.443 57.82C165.696 58.1333 165.823 58.5433 165.823 59.05C165.823 59.43 165.736 59.7733 165.563 60.08C165.39 60.38 165.13 60.6167 164.783 60.79C164.436 60.9633 164.02 61.05 163.533 61.05C162.826 61.05 162.246 60.8667 161.793 60.5C161.34 60.1267 161.086 59.6 161.033 58.92H161.913C161.96 59.32 162.123 59.6467 162.403 59.9C162.683 60.1533 163.056 60.28 163.523 60.28C163.99 60.28 164.343 60.16 164.583 59.92C164.83 59.6733 164.953 59.3567 164.953 58.97C164.953 58.47 164.786 58.11 164.453 57.89C164.12 57.67 163.616 57.56 162.943 57.56H162.713V56.8H162.953C163.566 56.7933 164.03 56.6933 164.343 56.5C164.656 56.3 164.813 55.9933 164.813 55.58C164.813 55.2267 164.696 54.9433 164.463 54.73C164.236 54.5167 163.91 54.41 163.483 54.41C163.07 54.41 162.736 54.5167 162.483 54.73C162.23 54.9433 162.08 55.23 162.033 55.59H161.143ZM172.078 61.07C171.618 61.07 171.204 60.99 170.838 60.83C170.478 60.6633 170.194 60.4367 169.988 60.15C169.781 59.8567 169.674 59.52 169.668 59.14H170.638C170.671 59.4667 170.804 59.7433 171.038 59.97C171.278 60.19 171.624 60.3 172.078 60.3C172.511 60.3 172.851 60.1933 173.098 59.98C173.351 59.76 173.478 59.48 173.478 59.14C173.478 58.8733 173.404 58.6567 173.258 58.49C173.111 58.3233 172.928 58.1967 172.708 58.11C172.488 58.0233 172.191 57.93 171.818 57.83C171.358 57.71 170.988 57.59 170.708 57.47C170.434 57.35 170.198 57.1633 169.998 56.91C169.804 56.65 169.708 56.3033 169.708 55.87C169.708 55.49 169.804 55.1533 169.998 54.86C170.191 54.5667 170.461 54.34 170.808 54.18C171.161 54.02 171.564 53.94 172.018 53.94C172.671 53.94 173.204 54.1033 173.618 54.43C174.038 54.7567 174.274 55.19 174.328 55.73H173.328C173.294 55.4633 173.154 55.23 172.908 55.03C172.661 54.8233 172.334 54.72 171.928 54.72C171.548 54.72 171.238 54.82 170.998 55.02C170.758 55.2133 170.638 55.4867 170.638 55.84C170.638 56.0933 170.708 56.3 170.848 56.46C170.994 56.62 171.171 56.7433 171.378 56.83C171.591 56.91 171.888 57.0033 172.268 57.11C172.728 57.2367 173.098 57.3633 173.378 57.49C173.658 57.61 173.898 57.8 174.098 58.06C174.298 58.3133 174.398 58.66 174.398 59.1C174.398 59.44 174.308 59.76 174.128 60.06C173.948 60.36 173.681 60.6033 173.328 60.79C172.974 60.9767 172.558 61.07 172.078 61.07ZM175.397 58.24C175.397 57.68 175.51 57.19 175.737 56.77C175.963 56.3433 176.273 56.0133 176.667 55.78C177.067 55.5467 177.51 55.43 177.997 55.43C178.477 55.43 178.893 55.5333 179.247 55.74C179.6 55.9467 179.863 56.2067 180.037 56.52V55.52H180.957V61H180.037V59.98C179.857 60.3 179.587 60.5667 179.227 60.78C178.873 60.9867 178.46 61.09 177.987 61.09C177.5 61.09 177.06 60.97 176.667 60.73C176.273 60.49 175.963 60.1533 175.737 59.72C175.51 59.2867 175.397 58.7933 175.397 58.24ZM180.037 58.25C180.037 57.8367 179.953 57.4767 179.787 57.17C179.62 56.8633 179.393 56.63 179.107 56.47C178.827 56.3033 178.517 56.22 178.177 56.22C177.837 56.22 177.527 56.3 177.247 56.46C176.967 56.62 176.743 56.8533 176.577 57.16C176.41 57.4667 176.327 57.8267 176.327 58.24C176.327 58.66 176.41 59.0267 176.577 59.34C176.743 59.6467 176.967 59.8833 177.247 60.05C177.527 60.21 177.837 60.29 178.177 60.29C178.517 60.29 178.827 60.21 179.107 60.05C179.393 59.8833 179.62 59.6467 179.787 59.34C179.953 59.0267 180.037 58.6633 180.037 58.25ZM183.405 53.6V61H182.495V53.6H183.405ZM189.956 58.05C189.956 58.2233 189.946 58.4067 189.926 58.6H185.546C185.579 59.14 185.762 59.5633 186.096 59.87C186.436 60.17 186.846 60.32 187.326 60.32C187.719 60.32 188.046 60.23 188.306 60.05C188.572 59.8633 188.759 59.6167 188.866 59.31H189.846C189.699 59.8367 189.406 60.2667 188.966 60.6C188.526 60.9267 187.979 61.09 187.326 61.09C186.806 61.09 186.339 60.9733 185.926 60.74C185.519 60.5067 185.199 60.1767 184.966 59.75C184.732 59.3167 184.616 58.8167 184.616 58.25C184.616 57.6833 184.729 57.1867 184.956 56.76C185.182 56.3333 185.499 56.0067 185.906 55.78C186.319 55.5467 186.792 55.43 187.326 55.43C187.846 55.43 188.306 55.5433 188.706 55.77C189.106 55.9967 189.412 56.31 189.626 56.71C189.846 57.1033 189.956 57.55 189.956 58.05ZM189.016 57.86C189.016 57.5133 188.939 57.2167 188.786 56.97C188.632 56.7167 188.422 56.5267 188.156 56.4C187.896 56.2667 187.606 56.2 187.286 56.2C186.826 56.2 186.432 56.3467 186.106 56.64C185.786 56.9333 185.602 57.34 185.556 57.86H189.016ZM193.097 61.09C192.677 61.09 192.3 61.02 191.967 60.88C191.633 60.7333 191.37 60.5333 191.177 60.28C190.983 60.02 190.877 59.7233 190.857 59.39H191.797C191.823 59.6633 191.95 59.8867 192.177 60.06C192.41 60.2333 192.713 60.32 193.087 60.32C193.433 60.32 193.707 60.2433 193.907 60.09C194.107 59.9367 194.207 59.7433 194.207 59.51C194.207 59.27 194.1 59.0933 193.887 58.98C193.673 58.86 193.343 58.7433 192.897 58.63C192.49 58.5233 192.157 58.4167 191.897 58.31C191.643 58.1967 191.423 58.0333 191.237 57.82C191.057 57.6 190.967 57.3133 190.967 56.96C190.967 56.68 191.05 56.4233 191.217 56.19C191.383 55.9567 191.62 55.7733 191.927 55.64C192.233 55.5 192.583 55.43 192.977 55.43C193.583 55.43 194.073 55.5833 194.447 55.89C194.82 56.1967 195.02 56.6167 195.047 57.15H194.137C194.117 56.8633 194 56.6333 193.787 56.46C193.58 56.2867 193.3 56.2 192.947 56.2C192.62 56.2 192.36 56.27 192.167 56.41C191.973 56.55 191.877 56.7333 191.877 56.96C191.877 57.14 191.933 57.29 192.047 57.41C192.167 57.5233 192.313 57.6167 192.487 57.69C192.667 57.7567 192.913 57.8333 193.227 57.92C193.62 58.0267 193.94 58.1333 194.187 58.24C194.433 58.34 194.643 58.4933 194.817 58.7C194.997 58.9067 195.09 59.1767 195.097 59.51C195.097 59.81 195.013 60.08 194.847 60.32C194.68 60.56 194.443 60.75 194.137 60.89C193.837 61.0233 193.49 61.09 193.097 61.09Z" fill="#131316"/>
<path d="M156 73H176L168.828 80.1716C167.266 81.7337 164.734 81.7337 163.172 80.1716L156 73Z" fill="white"/>
<circle cx="166" cy="102" r="8" fill="white"/>
<circle cx="166" cy="102" r="3" fill="#131316"/>
</svg>
