<svg width="24" height="24" viewBox="0 0 24 24" fill="none" xmlns="http://www.w3.org/2000/svg">
<g clip-path="url(#clip0_0_851)">
<path d="M2.99994 5.97499C2.99994 5.40259 3.20265 4.93037 3.60805 4.55832C4.01345 4.18627 4.54049 4.00024 5.18913 4.00024C5.8262 4.00024 6.34163 4.1834 6.73546 4.54974C7.14086 4.92752 7.34357 5.41976 7.34357 6.0265C7.34357 6.576 7.14666 7.0339 6.75283 7.40024C6.34743 7.77802 5.81461 7.9669 5.15438 7.9669H5.137C4.49993 7.9669 3.9845 7.77802 3.59067 7.40024C3.19684 7.02246 2.99994 6.54737 2.99994 5.97499ZM3.22581 21.0002V9.52953H7.08295V21.0002H3.22581ZM9.22002 21.0002H13.0772V14.5952C13.0772 14.1945 13.1235 13.8854 13.2162 13.6679C13.3783 13.2787 13.6245 12.9495 13.9546 12.6805C14.2847 12.4115 14.6988 12.277 15.1968 12.277C16.4942 12.277 17.1428 13.1413 17.1428 14.8699V21.0002H20.9999V14.4235C20.9999 12.7292 20.5945 11.4442 19.7837 10.5684C18.9729 9.69266 17.9015 9.25478 16.5694 9.25478C15.0752 9.25478 13.9111 9.89013 13.0772 11.1608V11.1952H13.0598L13.0772 11.1608V9.52953H9.22002C9.24318 9.89585 9.25477 11.0349 9.25477 12.9467C9.25477 14.8585 9.24318 17.543 9.22002 21.0002Z" fill="#BCC2C3"/>
</g>
<defs>
<clipPath id="clip0_0_851">
<rect width="18" height="17" fill="white" transform="translate(3 4)"/>
</clipPath>
</defs>
</svg>
